<svg id="visual" viewBox="0 0 1920 1080" width="1920" height="1080" xmlns="http://www.w3.org/2000/svg" xmlns:xlink="http://www.w3.org/1999/xlink" version="1.1"><rect x="0" y="0" width="1920" height="1080" fill="#b9ebf5"></rect><path d="M0 715L45.7 720.5C91.3 726 182.7 737 274.2 743C365.7 749 457.3 750 548.8 734C640.3 718 731.7 685 823 678.3C914.3 671.7 1005.7 691.3 1097 695.3C1188.3 699.3 1279.7 687.7 1371.2 681.5C1462.7 675.3 1554.3 674.7 1645.8 673.2C1737.3 671.7 1828.7 669.3 1874.3 668.2L1920 667L1920 1081L1874.3 1081C1828.7 1081 1737.3 1081 1645.8 1081C1554.3 1081 1462.7 1081 1371.2 1081C1279.7 1081 1188.3 1081 1097 1081C1005.7 1081 914.3 1081 823 1081C731.7 1081 640.3 1081 548.8 1081C457.3 1081 365.7 1081 274.2 1081C182.7 1081 91.3 1081 45.7 1081L0 1081Z" fill="#69dbfa"></path><path d="M0 757L45.7 736.5C91.3 716 182.7 675 274.2 683.8C365.7 692.7 457.3 751.3 548.8 753C640.3 754.7 731.7 699.3 823 700.3C914.3 701.3 1005.7 758.7 1097 780.2C1188.3 801.7 1279.7 787.3 1371.2 761C1462.7 734.7 1554.3 696.3 1645.8 676.7C1737.3 657 1828.7 656 1874.3 655.5L1920 655L1920 1081L1874.3 1081C1828.7 1081 1737.3 1081 1645.8 1081C1554.3 1081 1462.7 1081 1371.2 1081C1279.7 1081 1188.3 1081 1097 1081C1005.7 1081 914.3 1081 823 1081C731.7 1081 640.3 1081 548.8 1081C457.3 1081 365.7 1081 274.2 1081C182.7 1081 91.3 1081 45.7 1081L0 1081Z" fill="#48c3f0"></path><path d="M0 733L45.7 752C91.3 771 182.7 809 274.2 831.8C365.7 854.7 457.3 862.3 548.8 855C640.3 847.7 731.7 825.3 823 826.2C914.3 827 1005.7 851 1097 851.5C1188.3 852 1279.7 829 1371.2 828.7C1462.7 828.3 1554.3 850.7 1645.8 844.5C1737.3 838.3 1828.7 803.7 1874.3 786.3L1920 769L1920 1081L1874.3 1081C1828.7 1081 1737.3 1081 1645.8 1081C1554.3 1081 1462.7 1081 1371.2 1081C1279.7 1081 1188.3 1081 1097 1081C1005.7 1081 914.3 1081 823 1081C731.7 1081 640.3 1081 548.8 1081C457.3 1081 365.7 1081 274.2 1081C182.7 1081 91.3 1081 45.7 1081L0 1081Z" fill="#2baae5"></path><path d="M0 876L45.7 872.3C91.3 868.7 182.7 861.3 274.2 853.3C365.7 845.3 457.3 836.7 548.8 831.5C640.3 826.3 731.7 824.7 823 843.3C914.3 862 1005.7 901 1097 903.5C1188.3 906 1279.7 872 1371.2 865.5C1462.7 859 1554.3 880 1645.8 891.3C1737.3 902.7 1828.7 904.3 1874.3 905.2L1920 906L1920 1081L1874.3 1081C1828.7 1081 1737.3 1081 1645.8 1081C1554.3 1081 1462.7 1081 1371.2 1081C1279.7 1081 1188.3 1081 1097 1081C1005.7 1081 914.3 1081 823 1081C731.7 1081 640.3 1081 548.8 1081C457.3 1081 365.7 1081 274.2 1081C182.7 1081 91.3 1081 45.7 1081L0 1081Z" fill="#1c91d7"></path><path d="M0 1010L45.7 1005.2C91.3 1000.3 182.7 990.7 274.2 982.7C365.7 974.7 457.3 968.3 548.8 972.7C640.3 977 731.7 992 823 1001.7C914.3 1011.3 1005.7 1015.7 1097 1003.3C1188.3 991 1279.7 962 1371.2 960.7C1462.7 959.3 1554.3 985.7 1645.8 995.5C1737.3 1005.3 1828.7 998.7 1874.3 995.3L1920 992L1920 1081L1874.3 1081C1828.7 1081 1737.3 1081 1645.8 1081C1554.3 1081 1462.7 1081 1371.2 1081C1279.7 1081 1188.3 1081 1097 1081C1005.7 1081 914.3 1081 823 1081C731.7 1081 640.3 1081 548.8 1081C457.3 1081 365.7 1081 274.2 1081C182.7 1081 91.3 1081 45.7 1081L0 1081Z" fill="#2478c7"></path></svg>