<svg id="visual" viewBox="0 0 900 600" width="900" height="600" xmlns="http://www.w3.org/2000/svg" xmlns:xlink="http://www.w3.org/1999/xlink" version="1.1"><rect x="0" y="0" width="900" height="600" fill="#b9ebf5"></rect><path d="M0 234L15 229.3C30 224.7 60 215.3 90 210.8C120 206.3 150 206.7 180 209.5C210 212.3 240 217.7 270 216.7C300 215.7 330 208.3 360 216.5C390 224.7 420 248.3 450 257.3C480 266.3 510 260.7 540 263.3C570 266 600 277 630 274.2C660 271.3 690 254.7 720 254C750 253.3 780 268.7 810 276C840 283.3 870 282.7 885 282.3L900 282L900 601L885 601C870 601 840 601 810 601C780 601 750 601 720 601C690 601 660 601 630 601C600 601 570 601 540 601C510 601 480 601 450 601C420 601 390 601 360 601C330 601 300 601 270 601C240 601 210 601 180 601C150 601 120 601 90 601C60 601 30 601 15 601L0 601Z" fill="#69dbfa"></path><path d="M0 259L15 258.7C30 258.3 60 257.7 90 262.2C120 266.7 150 276.3 180 286.5C210 296.7 240 307.3 270 305.8C300 304.3 330 290.7 360 278.7C390 266.7 420 256.3 450 256.3C480 256.3 510 266.7 540 280C570 293.3 600 309.7 630 313.3C660 317 690 308 720 298.3C750 288.7 780 278.3 810 285.2C840 292 870 316 885 328L900 340L900 601L885 601C870 601 840 601 810 601C780 601 750 601 720 601C690 601 660 601 630 601C600 601 570 601 540 601C510 601 480 601 450 601C420 601 390 601 360 601C330 601 300 601 270 601C240 601 210 601 180 601C150 601 120 601 90 601C60 601 30 601 15 601L0 601Z" fill="#52cbf4"></path><path d="M0 353L15 356.5C30 360 60 367 90 362.3C120 357.7 150 341.3 180 336.8C210 332.3 240 339.7 270 342.5C300 345.3 330 343.7 360 350C390 356.3 420 370.7 450 369.5C480 368.3 510 351.7 540 338.5C570 325.3 600 315.7 630 313C660 310.3 690 314.7 720 316.7C750 318.7 780 318.3 810 318.2C840 318 870 318 885 318L900 318L900 601L885 601C870 601 840 601 810 601C780 601 750 601 720 601C690 601 660 601 630 601C600 601 570 601 540 601C510 601 480 601 450 601C420 601 390 601 360 601C330 601 300 601 270 601C240 601 210 601 180 601C150 601 120 601 90 601C60 601 30 601 15 601L0 601Z" fill="#3dbbed"></path><path d="M0 422L15 411.8C30 401.7 60 381.3 90 378.3C120 375.3 150 389.7 180 394C210 398.3 240 392.7 270 391.7C300 390.7 330 394.3 360 396.2C390 398 420 398 450 398.8C480 399.7 510 401.3 540 396.7C570 392 600 381 630 381.7C660 382.3 690 394.7 720 391.8C750 389 780 371 810 368.2C840 365.3 870 377.7 885 383.8L900 390L900 601L885 601C870 601 840 601 810 601C780 601 750 601 720 601C690 601 660 601 630 601C600 601 570 601 540 601C510 601 480 601 450 601C420 601 390 601 360 601C330 601 300 601 270 601C240 601 210 601 180 601C150 601 120 601 90 601C60 601 30 601 15 601L0 601Z" fill="#2baae5"></path><path d="M0 428L15 429.2C30 430.3 60 432.7 90 435.2C120 437.7 150 440.3 180 435.3C210 430.3 240 417.7 270 417C300 416.3 330 427.7 360 430.2C390 432.7 420 426.3 450 426.3C480 426.3 510 432.7 540 436.7C570 440.7 600 442.3 630 447C660 451.7 690 459.3 720 462.7C750 466 780 465 810 455.5C840 446 870 428 885 419L900 410L900 601L885 601C870 601 840 601 810 601C780 601 750 601 720 601C690 601 660 601 630 601C600 601 570 601 540 601C510 601 480 601 450 601C420 601 390 601 360 601C330 601 300 601 270 601C240 601 210 601 180 601C150 601 120 601 90 601C60 601 30 601 15 601L0 601Z" fill="#1e9adc"></path><path d="M0 464L15 468C30 472 60 480 90 485.3C120 490.7 150 493.3 180 489.5C210 485.7 240 475.3 270 473.3C300 471.3 330 477.7 360 484C390 490.3 420 496.7 450 498.5C480 500.3 510 497.7 540 491C570 484.3 600 473.7 630 473.7C660 473.7 690 484.3 720 490.5C750 496.7 780 498.3 810 495.2C840 492 870 484 885 480L900 476L900 601L885 601C870 601 840 601 810 601C780 601 750 601 720 601C690 601 660 601 630 601C600 601 570 601 540 601C510 601 480 601 450 601C420 601 390 601 360 601C330 601 300 601 270 601C240 601 210 601 180 601C150 601 120 601 90 601C60 601 30 601 15 601L0 601Z" fill="#1c89d2"></path><path d="M0 550L15 549.3C30 548.7 60 547.3 90 544.8C120 542.3 150 538.7 180 535.2C210 531.7 240 528.3 270 530.8C300 533.3 330 541.7 360 541C390 540.3 420 530.7 450 525.2C480 519.7 510 518.3 540 521.3C570 524.3 600 531.7 630 536.5C660 541.3 690 543.7 720 540.8C750 538 780 530 810 524.7C840 519.3 870 516.7 885 515.3L900 514L900 601L885 601C870 601 840 601 810 601C780 601 750 601 720 601C690 601 660 601 630 601C600 601 570 601 540 601C510 601 480 601 450 601C420 601 390 601 360 601C330 601 300 601 270 601C240 601 210 601 180 601C150 601 120 601 90 601C60 601 30 601 15 601L0 601Z" fill="#2478c7"></path></svg>