<?xml version="1.0" encoding="UTF-8" standalone="no"?>
<!DOCTYPE svg PUBLIC "-//W3C//DTD SVG 1.1//EN" "http://www.w3.org/Graphics/SVG/1.1/DTD/svg11.dtd">
<!-- Created with Vectornator (http://vectornator.io/) -->
<svg height="100%" stroke-miterlimit="10" style="fill-rule:nonzero;clip-rule:evenodd;stroke-linecap:round;stroke-linejoin:round;" version="1.1" viewBox="0 0 1024 1024" width="100%" xml:space="preserve" xmlns="http://www.w3.org/2000/svg" xmlns:vectornator="http://vectornator.io" xmlns:xlink="http://www.w3.org/1999/xlink">
<defs>
<linearGradient gradientTransform="matrix(1 0 0 1 0 0)" gradientUnits="userSpaceOnUse" id="LinearGradient" x1="129.812" x2="475.853" y1="671.581" y2="671.581">
<stop offset="0" stop-color="#11d2f4"/>
<stop offset="1" stop-color="#11d2f4"/>
</linearGradient>
<filter color-interpolation-filters="sRGB" filterUnits="userSpaceOnUse" height="342.374" id="Filter" width="596.041" x="4.81185" y="500.394">
<feDropShadow dx="-0" dy="0" flood-color="#00edf0" flood-opacity="0.43" in="SourceGraphic" result="Shadow" stdDeviation="50"/>
</filter>
<filter color-interpolation-filters="sRGB" filterUnits="userSpaceOnUse" height="662.217" id="Filter_2" width="399.578" x="202.254" y="179.935">
<feDropShadow dx="-0" dy="0" flood-color="#00edf0" flood-opacity="0.43" in="SourceGraphic" result="Shadow" stdDeviation="50"/>
</filter>
<filter color-interpolation-filters="sRGB" filterUnits="userSpaceOnUse" height="413.484" id="Filter_3" width="413.66" x="605.528" y="430.114">
<feDropShadow dx="-0" dy="0" flood-color="#00edf0" flood-opacity="0.43" in="SourceGraphic" result="Shadow" stdDeviation="50"/>
</filter>
<filter color-interpolation-filters="sRGB" filterUnits="userSpaceOnUse" height="505.779" id="Filter_4" width="715.973" x="204.224" y="177.632">
<feDropShadow dx="-0" dy="0" flood-color="#00edf0" flood-opacity="0.43" in="SourceGraphic" result="Shadow" stdDeviation="50"/>
</filter>
<filter color-interpolation-filters="sRGB" filterUnits="userSpaceOnUse" height="519.274" id="Filter_5" width="437.149" x="378.615" y="322.146">
<feDropShadow dx="-0" dy="0" flood-color="#00edf0" flood-opacity="0.43" in="SourceGraphic" result="Shadow" stdDeviation="50"/>
</filter>
</defs>
<clipPath id="ArtboardFrame">
<rect height="1024" width="1024" x="0" y="0"/>
</clipPath>
<g clip-path="url(#ArtboardFrame)" id="Layer-1" vectornator:layerName="Layer 1">
<path d="M2.84217e-14-4.9738e-14L1024.46-4.9738e-14L1024.46 1024L2.84217e-14 1024L2.84217e-14-4.9738e-14Z" fill="#020344" fill-rule="nonzero" opacity="1" stroke="none"/>
</g>
<g id="Layer-2" vectornator:layerName="Layer 2">
<path d="M183.171 625.394L422.493 625.394C451.963 625.394 475.853 646.073 475.853 671.581L475.853 671.581C475.853 697.09 451.963 717.768 422.493 717.768L183.171 717.768C153.702 717.768 129.812 697.09 129.812 671.581L129.812 671.581C129.812 646.073 153.702 625.394 183.171 625.394Z" fill="url(#LinearGradient)" fill-rule="nonzero" filter="url(#Filter)" stroke="none" vectornator:blendMode="lighten" vectornator:shadowAngle="1.5708" vectornator:shadowColor="#00edf0" vectornator:shadowOffset="0" vectornator:shadowOpacity="0.43" vectornator:shadowRadius="100"/>
<path d="M426.549 349.807L476.113 656.745C480.755 685.495 462.452 712.278 435.231 716.568L435.231 716.568C408.011 720.858 382.181 701.029 377.538 672.279L327.974 365.342C323.332 336.592 341.635 309.808 368.855 305.518L368.855 305.518C396.076 301.229 421.906 321.058 426.549 349.807Z" fill="#11d2f4" fill-rule="nonzero" filter="url(#Filter_2)" stroke="none" vectornator:blendMode="lighten" vectornator:shadowAngle="1.5708" vectornator:shadowColor="#00edf0" vectornator:shadowOffset="0" vectornator:shadowOpacity="0.43" vectornator:shadowRadius="100"/>
<path d="M730.528 636.856C730.528 591.711 767.165 555.114 812.358 555.114C857.552 555.114 894.188 591.711 894.188 636.856C894.188 682.001 857.552 718.598 812.358 718.598C767.165 718.598 730.528 682.001 730.528 636.856Z" fill="#11d2f4" fill-rule="nonzero" filter="url(#Filter_3)" stroke="none" vectornator:blendMode="lighten" vectornator:shadowAngle="1.5708" vectornator:shadowColor="#00edf0" vectornator:shadowOffset="0" vectornator:shadowOpacity="0.43" vectornator:shadowRadius="100"/>
<g filter="url(#Filter_4)" vectornator:blendMode="lighten" vectornator:shadowAngle="1.5708" vectornator:shadowColor="#00edf0" vectornator:shadowOffset="0" vectornator:shadowOpacity="0.43" vectornator:shadowRadius="100">
<path d="M377.125 305.25C351.861 305.473 331.589 326.142 331.812 351.406C332.036 376.67 352.673 396.973 377.938 396.75C416.31 396.46 454.694 399.264 492.344 406.938C534.948 415.621 576.478 430.743 614.062 452.688C637.829 466.564 660.335 483.447 679.625 503.094C685.878 509.462 691.819 516.158 697.281 523.219C699.128 525.606 700.922 528.04 702.625 530.531C703.416 531.689 704.249 532.834 704.938 534.062C704.979 534.136 705.02 534.208 705.062 534.281C718.338 557.236 747.657 565.221 770.75 552.094C793.949 538.906 802.063 509.418 788.875 486.219C785.884 480.974 782.427 475.969 778.875 471.094C773.566 463.807 767.869 456.823 761.906 450.062C744.514 430.342 724.822 412.577 703.625 397.031C691.605 388.216 679.084 380.098 666.188 372.625C579.072 322.146 476.817 304.244 377.125 305.25Z" fill="#11d2f4" stroke="none"/>
</g>
<g filter="url(#Filter_5)" vectornator:blendMode="lighten" vectornator:shadowAngle="1.5708" vectornator:shadowColor="#00edf0" vectornator:shadowOffset="0" vectornator:shadowOpacity="0.43" vectornator:shadowRadius="100">
<path d="M550 449.562C547.303 449.341 544.541 449.382 541.75 449.719C519.423 452.41 503.496 472.704 506.188 495.031C508.702 516.257 511.256 537.488 514.438 558.625C515.832 567.891 517.251 577.174 519.031 586.375C522.357 603.565 526.753 620.802 534.625 636.531C538.736 644.745 543.812 652.439 549.875 659.344C556.878 667.32 565.076 674.128 573.875 680.031C581.429 685.099 589.408 689.505 597.344 693.938C606.819 699.23 616.262 704.569 625.531 710.219C645.866 722.495 672.286 715.959 684.562 695.625C696.839 675.29 690.303 648.87 669.969 636.594C657.839 629.341 645.449 622.604 633.094 615.75C628.983 613.47 624.875 611.147 620.906 608.625C617.966 606.757 614.949 604.79 612.625 602.156C609.442 598.549 607.548 593.927 605.906 589.469C602.919 581.356 600.911 572.875 599.094 564.438C596.656 553.116 594.756 541.699 593.031 530.25C590.779 515.294 588.904 500.292 587.062 485.281C584.707 465.745 568.876 451.111 550 449.562Z" fill="#11d2f4" stroke="none"/>
</g>
</g>
</svg>
