<?xml version="1.0" encoding="UTF-8" standalone="no"?>
<!DOCTYPE svg PUBLIC "-//W3C//DTD SVG 1.1//EN" "http://www.w3.org/Graphics/SVG/1.1/DTD/svg11.dtd">
<!-- Created with Vectornator (http://vectornator.io/) -->
<svg height="100%" stroke-miterlimit="10" style="fill-rule:nonzero;clip-rule:evenodd;stroke-linecap:round;stroke-linejoin:round;" version="1.1" viewBox="0 0 1024 1024" width="100%" xml:space="preserve" xmlns="http://www.w3.org/2000/svg" xmlns:vectornator="http://vectornator.io" xmlns:xlink="http://www.w3.org/1999/xlink">
<defs/>
<g id="Layer-1" vectornator:layerName="Layer 1">
<path d="M331.15 239.672L698.101 239.672L698.101 773.616L331.15 773.616L331.15 239.672Z" fill="#0fc3cc" fill-rule="nonzero" opacity="1" stroke="#0fc3cc" stroke-linecap="butt" stroke-linejoin="round" stroke-width="10"/>
<path d="M329.893 186.382L339.076 186.382L339.076 210.509L339.076 224.214L329.893 224.214L329.893 186.382Z" fill="#0fc3cc" fill-rule="nonzero" opacity="1" stroke="#0fc3cc" stroke-linecap="butt" stroke-linejoin="round" stroke-width="10"/>
<path d="M355.916 186.295L365.099 186.295L365.099 210.423L365.099 224.127L355.916 224.127L355.916 186.295Z" fill="#0fc3cc" fill-rule="nonzero" opacity="1" stroke="#0fc3cc" stroke-linecap="butt" stroke-linejoin="round" stroke-width="10"/>
<path d="M381.679 185.956L390.863 185.956L390.863 210.083L390.863 223.787L381.679 223.787L381.679 185.956Z" fill="#0fc3cc" fill-rule="nonzero" opacity="1" stroke="#0fc3cc" stroke-linecap="butt" stroke-linejoin="round" stroke-width="10"/>
<path d="M406.903 186.382L416.086 186.382L416.086 210.509L416.086 224.214L406.903 224.214L406.903 186.382Z" fill="#0fc3cc" fill-rule="nonzero" opacity="1" stroke="#0fc3cc" stroke-linecap="butt" stroke-linejoin="round" stroke-width="10"/>
<path d="M432.926 186.295L442.109 186.295L442.109 210.423L442.109 224.127L432.926 224.127L432.926 186.295Z" fill="#0fc3cc" fill-rule="nonzero" opacity="1" stroke="#0fc3cc" stroke-linecap="butt" stroke-linejoin="round" stroke-width="10"/>
<path d="M458.689 185.956L467.873 185.956L467.873 210.083L467.873 223.787L458.689 223.787L458.689 185.956Z" fill="#0fc3cc" fill-rule="nonzero" opacity="1" stroke="#0fc3cc" stroke-linecap="butt" stroke-linejoin="round" stroke-width="10"/>
<path d="M483.913 186.382L493.096 186.382L493.096 210.509L493.096 224.214L483.913 224.214L483.913 186.382Z" fill="#0fc3cc" fill-rule="nonzero" opacity="1" stroke="#0fc3cc" stroke-linecap="butt" stroke-linejoin="round" stroke-width="10"/>
<path d="M509.936 186.295L519.119 186.295L519.119 210.423L519.119 224.127L509.936 224.127L509.936 186.295Z" fill="#0fc3cc" fill-rule="nonzero" opacity="1" stroke="#0fc3cc" stroke-linecap="butt" stroke-linejoin="round" stroke-width="10"/>
<path d="M535.699 185.956L544.883 185.956L544.883 210.083L544.883 223.787L535.699 223.787L535.699 185.956Z" fill="#0fc3cc" fill-rule="nonzero" opacity="1" stroke="#0fc3cc" stroke-linecap="butt" stroke-linejoin="round" stroke-width="10"/>
<path d="M560.923 186.382L570.106 186.382L570.106 210.509L570.106 224.214L560.923 224.214L560.923 186.382Z" fill="#0fc3cc" fill-rule="nonzero" opacity="1" stroke="#0fc3cc" stroke-linecap="butt" stroke-linejoin="round" stroke-width="10"/>
<path d="M586.946 186.295L596.129 186.295L596.129 210.423L596.129 224.127L586.946 224.127L586.946 186.295Z" fill="#0fc3cc" fill-rule="nonzero" opacity="1" stroke="#0fc3cc" stroke-linecap="butt" stroke-linejoin="round" stroke-width="10"/>
<path d="M612.709 185.956L621.893 185.956L621.893 210.083L621.893 223.787L612.709 223.787L612.709 185.956Z" fill="#0fc3cc" fill-rule="nonzero" opacity="1" stroke="#0fc3cc" stroke-linecap="butt" stroke-linejoin="round" stroke-width="10"/>
<path d="M638.92 186.382L648.104 186.382L648.104 210.509L648.104 224.214L638.92 224.214L638.92 186.382Z" fill="#0fc3cc" fill-rule="nonzero" opacity="1" stroke="#0fc3cc" stroke-linecap="butt" stroke-linejoin="round" stroke-width="10"/>
<path d="M664.943 186.295L674.126 186.295L674.126 210.423L674.126 224.127L664.943 224.127L664.943 186.295Z" fill="#0fc3cc" fill-rule="nonzero" opacity="1" stroke="#0fc3cc" stroke-linecap="butt" stroke-linejoin="round" stroke-width="10"/>
<path d="M690.707 185.956L699.89 185.956L699.89 210.083L699.89 223.787L690.707 223.787L690.707 185.956Z" fill="#0fc3cc" fill-rule="nonzero" opacity="1" stroke="#0fc3cc" stroke-linecap="butt" stroke-linejoin="round" stroke-width="10"/>
<path d="M329.893 790.695L339.076 790.695L339.076 814.822L339.076 828.527L329.893 828.527L329.893 790.695Z" fill="#0fc3cc" fill-rule="nonzero" opacity="1" stroke="#0fc3cc" stroke-linecap="butt" stroke-linejoin="round" stroke-width="10"/>
<path d="M355.916 790.608L365.099 790.608L365.099 814.736L365.099 828.44L355.916 828.44L355.916 790.608Z" fill="#0fc3cc" fill-rule="nonzero" opacity="1" stroke="#0fc3cc" stroke-linecap="butt" stroke-linejoin="round" stroke-width="10"/>
<path d="M381.679 790.269L390.863 790.269L390.863 814.396L390.863 828.1L381.679 828.1L381.679 790.269Z" fill="#0fc3cc" fill-rule="nonzero" opacity="1" stroke="#0fc3cc" stroke-linecap="butt" stroke-linejoin="round" stroke-width="10"/>
<path d="M406.903 790.695L416.086 790.695L416.086 814.822L416.086 828.527L406.903 828.527L406.903 790.695Z" fill="#0fc3cc" fill-rule="nonzero" opacity="1" stroke="#0fc3cc" stroke-linecap="butt" stroke-linejoin="round" stroke-width="10"/>
<path d="M432.926 790.608L442.109 790.608L442.109 814.736L442.109 828.44L432.926 828.44L432.926 790.608Z" fill="#0fc3cc" fill-rule="nonzero" opacity="1" stroke="#0fc3cc" stroke-linecap="butt" stroke-linejoin="round" stroke-width="10"/>
<path d="M458.689 790.269L467.873 790.269L467.873 814.396L467.873 828.1L458.689 828.1L458.689 790.269Z" fill="#0fc3cc" fill-rule="nonzero" opacity="1" stroke="#0fc3cc" stroke-linecap="butt" stroke-linejoin="round" stroke-width="10"/>
<path d="M483.913 790.695L493.096 790.695L493.096 814.822L493.096 828.527L483.913 828.527L483.913 790.695Z" fill="#0fc3cc" fill-rule="nonzero" opacity="1" stroke="#0fc3cc" stroke-linecap="butt" stroke-linejoin="round" stroke-width="10"/>
<path d="M509.936 790.608L519.119 790.608L519.119 814.736L519.119 828.44L509.936 828.44L509.936 790.608Z" fill="#0fc3cc" fill-rule="nonzero" opacity="1" stroke="#0fc3cc" stroke-linecap="butt" stroke-linejoin="round" stroke-width="10"/>
<path d="M535.699 790.269L544.883 790.269L544.883 814.396L544.883 828.1L535.699 828.1L535.699 790.269Z" fill="#0fc3cc" fill-rule="nonzero" opacity="1" stroke="#0fc3cc" stroke-linecap="butt" stroke-linejoin="round" stroke-width="10"/>
<path d="M560.923 790.695L570.106 790.695L570.106 814.822L570.106 828.527L560.923 828.527L560.923 790.695Z" fill="#0fc3cc" fill-rule="nonzero" opacity="1" stroke="#0fc3cc" stroke-linecap="butt" stroke-linejoin="round" stroke-width="10"/>
<path d="M586.946 790.608L596.129 790.608L596.129 814.736L596.129 828.44L586.946 828.44L586.946 790.608Z" fill="#0fc3cc" fill-rule="nonzero" opacity="1" stroke="#0fc3cc" stroke-linecap="butt" stroke-linejoin="round" stroke-width="10"/>
<path d="M612.709 790.269L621.893 790.269L621.893 814.396L621.893 828.1L612.709 828.1L612.709 790.269Z" fill="#0fc3cc" fill-rule="nonzero" opacity="1" stroke="#0fc3cc" stroke-linecap="butt" stroke-linejoin="round" stroke-width="10"/>
<path d="M638.92 790.695L648.104 790.695L648.104 814.822L648.104 828.527L638.92 828.527L638.92 790.695Z" fill="#0fc3cc" fill-rule="nonzero" opacity="1" stroke="#0fc3cc" stroke-linecap="butt" stroke-linejoin="round" stroke-width="10"/>
<path d="M664.943 790.608L674.126 790.608L674.126 814.736L674.126 828.44L664.943 828.44L664.943 790.608Z" fill="#0fc3cc" fill-rule="nonzero" opacity="1" stroke="#0fc3cc" stroke-linecap="butt" stroke-linejoin="round" stroke-width="10"/>
<path d="M690.707 790.269L699.89 790.269L699.89 814.396L699.89 828.1L690.707 828.1L690.707 790.269Z" fill="#0fc3cc" fill-rule="nonzero" opacity="1" stroke="#0fc3cc" stroke-linecap="butt" stroke-linejoin="round" stroke-width="10"/>
<path d="M400.954 465.717L635.847 465.717L635.847 734.709L400.954 734.709L400.954 465.717Z" fill="none" opacity="1" stroke="#ffffff" stroke-linecap="butt" stroke-linejoin="round" stroke-width="10"/>
<path d="M524.561 344.237C524.041 339.003 520.888 334.379 518.89 329.514C518.739 329.146 519.669 329.33 520.03 329.164C521.183 328.632 521.346 328.697 522.923 328.533C525.722 328.241 528.871 328.812 529.277 332.125" fill="none" opacity="1" stroke="#0fc3cc" stroke-linecap="round" stroke-linejoin="round" stroke-width="10"/>
<path d="M505.143 370.243C514.987 356.651 523.923 342.411 533.913 328.927C535.299 327.057 537.448 325.889 539.072 324.221C539.523 323.757 540.399 322.208 539.787 322.416C537.383 323.233 535.413 324.319 533.214 325.713C531.114 327.044 528.762 330.429 526.113 330.429" fill="none" opacity="1" stroke="#0fc3cc" stroke-linecap="round" stroke-linejoin="round" stroke-width="10"/>
</g>
<g id="Layer-3" vectornator:layerName="Layer 3">
<path d="M520.618 283.342C513.093 339.208 451.736 337.743 419.942 389.724C408.396 408.6 400.749 434.525 400.994 472.802" fill="none" opacity="1" stroke="#ffffff" stroke-linecap="butt" stroke-linejoin="round" stroke-width="10"/>
<path d="M520.618 283.342C527.831 339.327 586.642 337.859 617.117 389.951C628.184 408.868 635.514 434.848 635.279 473.208" fill="none" opacity="1" stroke="#ffffff" stroke-linecap="butt" stroke-linejoin="round" stroke-width="10"/>
<path d="M522.156 284.293L522.156 284.506L522.156 284.592L522.156 285.051L522.156 285.213L522.156 285.329L522.156 285.418L522.156 285.542L522.156 285.623L522.354 285.757L522.354 285.908L522.354 285.994L522.354 286.084L522.445 286.17L522.574 286.393L522.574 286.47L522.574 286.55L522.574 286.624L522.574 286.758L522.574 286.918L522.574 287.112L522.574 287.311L522.574 287.517L522.574 287.718L522.574 287.97L522.94 333.095L522.94 333.095" fill="none" opacity="1" stroke="#ffffff" stroke-linecap="round" stroke-linejoin="round" stroke-width="10"/>
<path d="M629.223 276.184" fill="none" opacity="1" stroke="#ffffff" stroke-linecap="butt" stroke-linejoin="round" stroke-width="10"/>
<path d="M525.215 277.051C525.215 279.444 526.379 281.737 527.022 284.068C527.523 285.881 528.55 286.82 529.578 288.465C530.359 289.715 530.667 290.727 531.93 291.747C532.318 292.06 532.548 292.443 532.944 292.75C533.145 292.905 533.591 293.449 533.536 293.225C533.242 292.035 531.28 290.604 530.556 289.603C529.035 287.501 527.238 283.026 524.714 282.02C523.894 281.693 522.508 281.89 521.625 281.89C516.593 281.89 515.151 283.777 512.099 286.751C511.299 287.53 509.829 288.75 509.829 289.869C509.829 290.196 510.341 289.373 510.541 289.093C510.777 288.762 510.869 288.447 511.161 288.141C512.092 287.162 512.976 286.174 513.852 285.198C515.933 282.879 523.064 283.451 526.277 283.74C526.359 283.747 526.357 286.113 526.258 286.123C525.227 286.218 524.385 285.421 523.474 285.249C520.004 284.594 516.791 285.622 514.055 287.147C513.952 287.204 513.598 287.997 513.529 288.111C513.162 288.718 512.112 289.248 511.514 289.696C510.23 290.658 509.332 294.11 508.46 295.283C506.647 297.723 503.973 300.065 501.807 302.359C501.111 303.097 497.182 307.407 495.655 306.746C495.594 306.719 495.655 306.63 495.655 306.572C495.655 305.546 495.522 304.515 495.655 303.495C496.071 300.33 497.13 297.233 498.285 294.199C498.418 293.85 499.032 293.115 498.596 293.132C497.362 293.179 497.256 294.887 496.825 295.856C496.695 296.148 497.473 296.359 497.387 296.661C496.985 298.066 496.728 298.485 496.233 299.102" fill="none" opacity="1" stroke="#0fc3cc" stroke-linecap="round" stroke-linejoin="round" stroke-width="10"/>
<path d="M410.842 459.091L625.726 459.091L625.726 475.033L410.842 475.033L410.842 459.091Z" fill="#0fc3cc" fill-rule="nonzero" opacity="1" stroke="#0fc3cc" stroke-linecap="round" stroke-linejoin="round" stroke-width="10"/>
<path d="M524.998 333.095C520.421 333.095 515.938 332.891 511.38 332.532C510.886 332.494 512.379 332.53 512.86 332.647C513.786 332.871 515.315 333.682 516.013 334.319C517.476 335.655 517.239 338.089 517.856 339.973C520.209 347.165 523.511 353.599 526.997 360.274C527.364 360.975 527.005 358.693 526.997 357.902C526.981 356.182 527.045 354.459 526.926 352.743C526.783 350.683 526.484 348.636 526.213 346.589C525.173 338.722 526.994 332.906 525.573 324.976C525.473 324.415 523.864 322.359 523.526 321.707C521.115 317.054 520.422 328.549 520.422 330.692C520.422 331.229 520.422 329.617 520.422 329.08C520.422 327.839 520.424 326.704 520.716 325.494C521.417 322.584 521.775 319.99 521.775 316.991C521.775 316.08 521.775 315.169 521.775 314.258C521.775 313.976 521.775 313.129 521.775 313.412C521.775 318.997 525.643 323.893 527.739 329.071C537.167 352.362 547.489 375.307 556.119 398.905C560.148 409.923 562.917 421.584 563.597 433.296C563.628 433.836 563.639 432.212 563.597 431.673C563.497 430.385 563.318 429.104 563.179 427.82" fill="none" opacity="1" stroke="#0fc3cc" stroke-linecap="round" stroke-linejoin="round" stroke-width="10"/>
<path d="M519.325 323.24C519.325 320.821 520.348 319.213 520.494 317.063C520.523 316.647 520.251 313.242 520.289 313.216C520.544 313.045 521.752 315.828 521.945 316.054C522.173 316.322 522.33 316.789 522.583 317.01C522.72 317.13 523.176 317.409 523.069 317.261C522.398 316.341 522.739 314.572 521.744 313.861C521.395 313.612 521.607 313.152 521.201 312.901C521.093 312.835 520.982 312.578 520.898 312.673C520.763 312.825 520.893 314.632 520.893 314.877C520.893 316.378 520.893 317.88 520.893 319.381C520.893 319.385 520.803 320.706 520.893 320.755C521.765 321.229 522.59 317.103 522.633 316.933C522.695 316.69 522.689 316.49 522.776 316.245C522.807 316.16 522.859 315.897 522.859 315.987C522.859 316.684 523.296 317.733 523.788 318.238C524.08 318.538 524.45 318.756 524.676 319.079C524.69 319.1 524.792 319.246 524.732 319.275C524.508 319.387 524.495 318.834 524.362 318.621C523.817 317.748 523.434 316.78 522.955 315.932C522.487 315.103 521.072 314.87 520.21 314.482C520.034 314.403 519.311 314.561 519.311 314.291C519.311 314.09 519.401 314.718 519.301 314.891C519.077 315.279 518.635 315.541 518.415 315.956C517.704 317.305 517.036 318.172 516.647 319.691C516.621 319.791 516.271 320.754 516.43 320.783C517.298 320.943 518.196 320.897 519.053 320.661C520.44 320.279 521.781 319.746 523.129 319.247C523.609 319.069 524.457 318.989 524.457 318.477C524.457 318.287 524.457 318.858 524.457 319.049C524.457 319.298 524.589 319.506 524.708 319.719C525.111 320.44 525.997 320.761 526.018 321.737" fill="none" opacity="1" stroke="#0fc3cc" stroke-linecap="round" stroke-linejoin="round" stroke-width="10"/>
</g>
</svg>
